# xmcd CD database file
#
# Track frame offsets:
#	150
#	11915
#	22365
#	35118
#	46430
#	57335
#	68998
#	82108
#	93465
#	105278
#	118288
#	130405
#	142363
#	155260
#	168298
#	180740
#	193605
#	205398
#	217250
#	229810
#	242153
#	254280
#	266543
#	277875
#	291545
#	304420
#
# Disc length: 4191 seconds
#
# Revision: 0
# Processed by: cddbd v1.4PL0 Copyright (c) Steve Scherf et al.
# Submitted via: CDex 1.40Release
#
DISCID=a3105d1a
DTITLE=Jerry Irby - Boppin Hillbilly Series
DYEAR=1900
DGENRE=Country
TTITLE0=Hillbilly Boogie
TTITLE1=Clickety Clack
TTITLE2=It's Time You Started Looking
TTITLE3=Call For Me Darling
TTITLE4=Texas Gal Polka
TTITLE5=Song Of San Antone
TTITLE6=One Cup Of Coffee And A Cigarette
TTITLE7=Uptown Swing
TTITLE8=Mama Don't Allow
TTITLE9=Super Boogie Woogie
TTITLE10=Nail In My Coffin
TTITLE11=First Time I Saw That Gal
TTITLE12=49 Women
TTITLE13=One Way Blues
TTITLE14=I've Got The Blues For Texas
TTITLE15=Answer To Drivin' Nails In My Coffin
TTITLE16=Don't Count Your Chickens
TTITLE17=You Just Can't Be Trusted Anymore
TTITLE18=Ball And Chain
TTITLE19=Sugar Pie
TTITLE20=There's A Bright Star Shining For Me
TTITLE21=Our Darling Baby
TTITLE22=Too Many Women
TTITLE23=I'm So Disgusted
TTITLE24=My Gal From Tennessee
TTITLE25=Bottom Of The List
EXTD=ID3G: 2
EXTT0=
EXTT1=
EXTT2=
EXTT3=
EXTT4=
EXTT5=
EXTT6=
EXTT7=
EXTT8=
EXTT9=
EXTT10=
EXTT11=
EXTT12=
EXTT13=
EXTT14=
EXTT15=
EXTT16=
EXTT17=
EXTT18=
EXTT19=
EXTT20=
EXTT21=
EXTT22=
EXTT23=
EXTT24=
EXTT25=
PLAYORDER=
